<svg xmlns="http://www.w3.org/2000/svg" width="48.518" height="54.053" viewBox="0 0 38.518 54.053">
  <g id="music" transform="translate(7.073 0) scale(0.9)">
    <path id="Path_173" data-name="Path 173" d="M10.88,54.053c7.4,0,10-4.869,12.512-9.579,1.77-3.316,3.6-6.744,7.226-9.161a17.7,17.7,0,0,0,7.9-14.76V19.387A19.392,19.392,0,0,0,19.259,0,19.392,19.392,0,0,0,0,19.387V43.173A10.892,10.892,0,0,0,10.88,54.053Zm8.379-42.5a7.822,7.822,0,0,0-7.7,7.832v.329A5.778,5.778,0,0,1,9.629,30.942a1.926,1.926,0,1,1,0-3.852,1.926,1.926,0,1,0,0-3.852A1.925,1.925,0,0,1,7.7,21.313V19.387A11.678,11.678,0,0,1,19.259,7.7,11.678,11.678,0,0,1,30.814,19.387v1.191A10.3,10.3,0,0,1,26.17,29.02a21.573,21.573,0,0,0-7.147,8.238,9.524,9.524,0,0,1-8.563,5.24H9.629a1.926,1.926,0,0,1,0-3.852h.832a5.693,5.693,0,0,0,5.125-3.122A25.7,25.7,0,0,1,24,25.838a6.375,6.375,0,0,0,2.96-5.261V19.387A7.822,7.822,0,0,0,19.259,11.555Zm0,0" transform="translate(-4.073 2)" fill="#fff"/>
  </g>
</svg>

