<?xml version="1.0" encoding="iso-8859-1"?>
<svg 
  version="1.1"
  xmlns="http://www.w3.org/2000/svg"
  viewBox="0 0 512 512"
  width="35"
  height="35"
  style="enable-background:new 0 0 512 512;"
  xml:space="preserve"
>
  <path
    fill="#FEC9A3" 
    d="M95.38,88.276L95.38,88.276C122.41,34.163,177.715-0.018,238.211,0h16.066
  	c58.227,0.018,111.837,31.709,139.917,82.714l0,0c31.815,57.918,29.643,128.547-5.65,184.408L260.103,470.157
  	c-16.296,26.086-44.897,41.905-75.652,41.843l0,0c-49.196,0-89.07-39.874-89.07-89.07V88.276z"
  />
  <path 
    fill="#F7BB8F"
    d="M180.566,256v-27.454c0-10.655-4.22-20.877-11.741-28.425l0,0
  	c-19.747-19.906-26.58-49.249-17.655-75.829l0,0c12.429-37.244,47.245-62.393,86.51-62.499l0,0
  	c40.942,0.009,78.574,22.484,97.986,58.527l0,0c18.785,34.825,17.682,77.003-2.913,110.786l-62.852,103.194
  	c-17.073,28.134-47.598,45.303-80.508,45.286l0,0c-4.873,0-8.828-3.955-8.828-8.828L180.566,256L180.566,256z"
  />
  <path
    fill="#E8A779"
    d="M257.102,119.614c17.143,29.908,17.143,66.666,0,96.574l-40.43,70.621
  	c-2.419,4.228-0.962,9.622,3.275,12.05c0.026,0.018,0.053,0.035,0.079,0.044c1.315,0.75,2.807,1.139,4.326,1.148
  	c3.169,0.009,6.1-1.668,7.68-4.414l40.43-70.621c20.162-35.487,19.968-79.016-0.53-114.317
  	c-10.152-17.655-32.486-35.31-53.937-46.786c-8.051,1.748-15.828,4.564-23.128,8.386
  	C217.113,81.302,246.155,100.899,257.102,119.614z"
  />
</svg>
