<svg xmlns="http://www.w3.org/2000/svg" width="34.727" height="54.709" viewBox="0 0 34.727 54.709">
  <g id="Group_98" data-name="Group 98" transform="translate(-169.268 -629.497)">
    <g id="Path_11" data-name="Path 11" transform="translate(175.522 629.496)" fill="#fff">
      <path d="M 10.98917293548584 35.63057708740234 C 5.481122970581055 35.63057708740234 1.000002980232239 31.14944839477539 1.000002980232239 25.64139938354492 L 1.000002980232239 10.98916816711426 C 1.000002980232239 5.481118679046631 5.481122970581055 0.9999985694885254 10.98917293548584 0.9999985694885254 C 16.49722290039062 0.9999985694885254 20.97834205627441 5.481118679046631 20.97834205627441 10.98916816711426 L 20.97834205627441 25.64139938354492 C 20.97834205627441 31.14944839477539 16.49722290039062 35.63057708740234 10.98917293548584 35.63057708740234 Z" stroke="none"/>
      <path d="M 10.98917293548584 2 C 6.032523155212402 2 2.000003814697266 6.032527923583984 2.000003814697266 10.98917770385742 L 2.000003814697266 25.64139938354492 C 2.000003814697266 30.59804916381836 6.032523155212402 34.63057708740234 10.98917293548584 34.63057708740234 C 15.94582271575928 34.63057708740234 19.97834396362305 30.59804916381836 19.97834396362305 25.64139938354492 L 19.97834396362305 10.98917770385742 C 19.97834396362305 6.032527923583984 15.94582271575928 2 10.98917293548584 2 M 10.98917293548584 0 C 17.05832290649414 0 21.97834205627441 4.920019149780273 21.97834205627441 10.98917770385742 L 21.97834205627441 25.64139938354492 C 21.97834205627441 31.71055793762207 17.05832290649414 36.63057708740234 10.98917293548584 36.63057708740234 C 4.920022964477539 36.63057708740234 3.814697265625e-06 31.71055793762207 3.814697265625e-06 25.64139938354492 L 3.814697265625e-06 10.98917770385742 C 3.814697265625e-06 4.920019149780273 4.920022964477539 0 10.98917293548584 0 Z" stroke="none" fill="#fff"/>
    </g>
    <path id="Path_4" data-name="Path 4" d="M0,0S17.993-.633,17.993,15,0,29.69,0,29.69" transform="translate(201.485 652.149) rotate(90)" fill="none" stroke="#fff" stroke-linecap="round" stroke-width="5"/>
    <path id="Path_5" data-name="Path 5" d="M273.715,695.837" transform="translate(-86.979 -25.694)" fill="none" stroke="#707070" stroke-width="1"/>
    <path id="Path_6" data-name="Path 6" d="M273.715,706.353V695.837" transform="translate(-86.979 -24.648)" fill="#9e99ee" stroke="#fff" stroke-linecap="round" stroke-width="5"/>
    <path id="Path_7" data-name="Path 7" d="M0,10.516V0" transform="translate(191.994 681.705) rotate(90)" fill="#9e99ee" stroke="#fff" stroke-linecap="round" stroke-width="5"/>
  </g>
</svg>

