<svg xmlns="http://www.w3.org/2000/svg" width="244.949" height="263.509" viewBox="0 0 244.949 263.509">
  <g transform="translate(-0.401 0)">
    <path d="M86.93,0V9.221a96.021,96.021,0,0,0,3.656,26.4l5.35,18.817,40.848-40.768-6.927-3.475A95.962,95.962,0,0,0,86.93,0Zm0,0" transform="translate(-37.473)" fill="#f7a116"/>
    <path d="M293.819,10.465l-6.952,3.457L327.631,54.8,333.05,36a96.156,96.156,0,0,0,3.734-26.387V.391a96.067,96.067,0,0,0-42.965,10.074Zm0,0" transform="translate(-124.061 -0.169)" fill="#f7a116"/>
    <path d="M60.573,291.841a27.185,27.185,0,0,1-22.225-36.257,23.962,23.962,0,0,0-1.455-20.7l-.857-1.428a40.818,40.818,0,1,0,43.93,53.327,27.068,27.068,0,0,1-19.393,5.058Zm0,0" transform="translate(0 -101.104)" fill="#ee9200"/>
    <path d="M229.879,358.415l7.915-37.344A40.482,40.482,0,0,0,198.25,272.2L89.4,272.047A40.483,40.483,0,0,0,49.72,320.812l7.813,37.382H53A22.677,22.677,0,0,0,30.289,380.84l54.425.071,117.921.168,54.425.073a22.677,22.677,0,0,0-22.646-22.708Zm0,0" transform="translate(-12.944 -117.816)" fill="#f7a116"/>
    <path d="M311.24,388a22.675,22.675,0,0,0-22.677-22.677h-4.535l7.864-37.355a40.389,40.389,0,0,0-15.083-40.5C254.875,345.123,199.148,373.824,152.547,388Zm0,0" transform="translate(-65.89 -124.493)" fill="#f58f00"/>
    <path d="M359.142,176.8h18.142a22.677,22.677,0,0,1-22.677,22.677H336.465A22.677,22.677,0,0,1,359.142,176.8Zm0,0" transform="translate(-145.54 -76.568)" fill="#348fd9"/>
    <path d="M336.465,216.8h18.142a22.675,22.675,0,0,1,22.677,22.677H359.142A22.678,22.678,0,0,1,336.465,216.8Zm0,0" transform="translate(-145.54 -93.891)" fill="#3086cd"/>
    <path d="M246.386,168.8H128.465V187l9.071,149.616h36.283V268.58h27.213v68.031h36.283L246.386,187Zm0,0" transform="translate(-55.461 -73.103)" fill="#ffb531"/>
    <path d="M246.386,176.8H128.465V190.46a57.889,57.889,0,0,0,26.488,45.354q9.069,5.81,18.593,10.887c.277.144.545.308.822.452l12.789,6.75,13.606-7.62,14.623-8.163,1.814-1.025a58.089,58.089,0,0,0,29.186-46.687Zm0,0" transform="translate(-55.461 -76.568)" fill="#348fd9"/>
    <path d="M246.386,176.8H128.465V190.46a57.889,57.889,0,0,0,26.488,45.354q9.069,5.81,18.593,10.887c.277.144.545.308.822.452l12.789,6.75,13.606-7.62,14.623-8.163,1.814-1.025a58.089,58.089,0,0,0,29.186-46.687Zm0,0" transform="translate(-55.461 -76.568)" fill="#3086cd"/>
    <path d="M197.9,147.257H156.169a18.145,18.145,0,0,1-11.339-3.977l-33.562-26.865a18.145,18.145,0,0,1-6.8-14.158V68.6a18.145,18.145,0,0,1,5.315-12.829l25.653-25.653A18.141,18.141,0,0,1,148.265,24.8H205.8a18.136,18.136,0,0,1,12.829,5.315l25.654,25.653A18.136,18.136,0,0,1,249.6,68.6v33.659a18.131,18.131,0,0,1-6.8,14.158l-33.562,26.86a18.149,18.149,0,0,1-11.339,3.982Zm0,0" transform="translate(-45.067 -10.741)" fill="#ffb531"/>
    <path d="M216.689,112.8a34.1,34.1,0,0,0-31.52,22.677h-14.06a33.242,33.242,0,0,0-62.816-.636,18.143,18.143,0,0,0,5.561,20.863l32.082,25.685a18.145,18.145,0,0,0,11.339,3.977H199a18.145,18.145,0,0,0,11.339-3.977l32.1-25.68A18.143,18.143,0,0,0,248,134.847,34.058,34.058,0,0,0,216.689,112.8Zm0,0" transform="translate(-46.173 -48.851)" fill="#ffd896"/>
    <path d="M217.536,120.8h9.071a9.071,9.071,0,1,1,0,18.142h-9.071a9.071,9.071,0,1,1,0-18.142Zm0,0" transform="translate(-90.107 -52.316)" fill="#2e3e51"/>
    <path d="M235.678,181.336a13.606,13.606,0,0,1-27.213,0l13.606-4.535Zm0,0" transform="translate(-90.107 -76.568)" fill="#e94f4f"/>
    <path d="M178.607,82.142c0,.741-4.061,1.342-9.071,1.342s-9.071-.6-9.071-1.342,4.062-1.342,9.071-1.342S178.607,81.4,178.607,82.142Zm0,0" transform="translate(-69.319 -25.922)" fill="#2e3e51"/>
    <path d="M290.607,82.142c0,.741-4.061,1.342-9.071,1.342s-9.071-.6-9.071-1.342,4.061-1.342,9.071-1.342S290.607,81.4,290.607,82.142Zm0,0" transform="translate(-118.73 -25.922)" fill="#2e3e51"/>
    <path d="M168.465,48.8h9.071v9.071h-9.071Zm0,0" transform="translate(-72.784 -21.134)" fill="#ffd896"/>
    <path d="M280.465,48.8h9.071v9.071h-9.071Zm0,0" transform="translate(-121.288 -21.134)" fill="#ffd896"/>
    <path d="M233.3,154.818l-5.7,8.555a4.563,4.563,0,0,1-4.666,1.931l-13.077-2.618V152.8H200.8v9.886L187.72,165.3a4.538,4.538,0,0,1-4.664-1.931l-5.7-8.555-7.547,5.034,5.7,8.55a13.576,13.576,0,0,0,13.992,5.8l15.827-3.173,15.83,3.173a13.535,13.535,0,0,0,13.992-5.8l5.7-8.55Zm0,0" transform="translate(-73.366 -66.174)" fill="#2e3e51"/>
  </g>
</svg>
