<svg xmlns="http://www.w3.org/2000/svg" viewBox="0 0 111.348 104.389">
  <path d="M107.869,16.168H93.95l-1.557-3.112a6.959,6.959,0,0,0-6.224-3.847H74.508L68.575,3.276a3.48,3.48,0,0,0-5.941,2.46V38.323L90.47,48.264V40.526H97.43a13.917,13.917,0,0,0,13.919-13.919V19.648A3.479,3.479,0,0,0,107.869,16.168ZM83.511,26.607a3.48,3.48,0,1,1,3.48-3.48A3.479,3.479,0,0,1,83.511,26.607Zm-62.633,17.4a6.969,6.969,0,0,1-6.959-6.959A6.959,6.959,0,0,0,0,37.046,20.842,20.842,0,0,0,13.919,56.641v46.518a3.479,3.479,0,0,0,3.48,3.48H31.317a3.479,3.479,0,0,0,3.48-3.48V78.8h34.8v24.357a3.479,3.479,0,0,0,3.48,3.48H86.991a3.479,3.479,0,0,0,3.48-3.48V55.651L57.86,44.005Z" transform="translate(0 -2.25)"/>
</svg>