<svg xmlns="http://www.w3.org/2000/svg" viewBox="0 0 111.348 104.389"><path d="M63.2,37.046c-4.389,0-23.231.431-35.359,18.692V37.046A20.9,20.9,0,0,0,6.959,16.168a6.959,6.959,0,1,0,0,13.918,6.968,6.968,0,0,1,6.959,6.959V92.72a13.931,13.931,0,0,0,13.918,13.918H66.113a3.479,3.479,0,0,0,3.48-3.48v-3.48a6.96,6.96,0,0,0-6.959-6.959H55.674L83.511,71.842v31.317a3.479,3.479,0,0,0,3.48,3.48H93.95a3.479,3.479,0,0,0,3.48-3.48V58.328a27.56,27.56,0,0,1-6.959.987A27.882,27.882,0,0,1,63.2,37.046ZM97.429,16.168H83.511L69.592,2.25V31.479a20.878,20.878,0,0,0,41.755,0V2.25Zm-15.658,17.4a3.48,3.48,0,1,1,3.48-3.48A3.479,3.479,0,0,1,81.771,33.567Zm17.4,0a3.48,3.48,0,1,1,3.48-3.48A3.479,3.479,0,0,1,99.169,33.567Z" transform="translate(0 -2.25)"/></svg>