<svg xmlns="http://www.w3.org/2000/svg" viewBox="0 0 91.925 74.736"><path d="M-4.738,65.931q2.245.219,4.484.222a37.073,37.073,0,0,0,23.467-8.068,18.173,18.173,0,0,1-10.984-3.741A18.378,18.378,0,0,1,5.576,45a17.771,17.771,0,0,0,3.513.3A18.471,18.471,0,0,0,14.1,44.63,18.183,18.183,0,0,1,3.221,38.167a18.275,18.275,0,0,1-4.3-12v-.226a17.692,17.692,0,0,0,8.593,2.317A18.7,18.7,0,0,1-.926,12.57,18.319,18.319,0,0,1,1.689,3.077a52.433,52.433,0,0,0,17.154,13.94,53.086,53.086,0,0,0,21.711,5.792,21.206,21.206,0,0,1-.525-4.335,18.136,18.136,0,0,1,5.53-13.3,18.226,18.226,0,0,1,13.38-5.53A18.119,18.119,0,0,1,72.688,5.621,37.946,37.946,0,0,0,84.646.988a17.975,17.975,0,0,1-8.221,10.463A38.505,38.505,0,0,0,87.187,8.461a36.184,36.184,0,0,1-9.344,9.788v2.47a54.194,54.194,0,0,1-8.931,29.635,57.737,57.737,0,0,1-10.8,12.29A47.868,47.868,0,0,1,43.054,71.2a55.034,55.034,0,0,1-18.873,3.173A52.947,52.947,0,0,1-4.738,65.931Z" transform="translate(4.738 0.359)"/></svg>